<svg xmlns="http://www.w3.org/2000/svg" width="240" height="200" viewBox="0 0 240 200">
  <rect width="240" height="200" fill="#f0ebe0"/>
  <!-- hoodie body -->
  <path d="M60 80 Q60 60 90 50 L100 30 Q120 20 140 30 L150 50 Q180 60 180 80 L195 110 L175 120 L175 180 L65 180 L65 120 L45 110 Z" fill="#4a5d3a" stroke="#2e3a2c" stroke-width="2"/>
  <!-- hood -->
  <path d="M95 50 Q120 35 145 50 Q150 60 145 70 Q120 60 95 70 Q90 60 95 50 Z" fill="#3a4a2e" stroke="#2e3a2c" stroke-width="2"/>
  <!-- pocket -->
  <path d="M85 130 L155 130 L165 165 L75 165 Z" fill="none" stroke="#2e3a2c" stroke-width="1.5"/>
  <!-- drawstrings -->
  <line x1="110" y1="65" x2="108" y2="95" stroke="#e8e0c8" stroke-width="2"/>
  <line x1="130" y1="65" x2="132" y2="95" stroke="#e8e0c8" stroke-width="2"/>
  <text x="120" y="190" font-family="sans-serif" font-size="10" text-anchor="middle" fill="#6b7280">NW-1001 Trail Hoodie</text>
</svg>
