<svg xmlns="http://www.w3.org/2000/svg" width="240" height="200" viewBox="0 0 240 200">
  <rect width="240" height="200" fill="#f0ebe0"/>
  <!-- shoe body -->
  <path d="M30 130 Q35 100 75 95 Q115 90 145 100 Q190 105 205 125 Q210 140 205 155 L40 155 Q25 145 30 130 Z" fill="#d97847" stroke="#7a3e1f" stroke-width="2"/>
  <!-- toe cap -->
  <path d="M165 100 Q200 105 205 125 Q200 130 165 125 Z" fill="#7a3e1f"/>
  <!-- laces -->
  <line x1="80" y1="100" x2="135" y2="100" stroke="#2e3a2c" stroke-width="2"/>
  <line x1="85" y1="110" x2="130" y2="110" stroke="#2e3a2c" stroke-width="2"/>
  <line x1="90" y1="120" x2="125" y2="120" stroke="#2e3a2c" stroke-width="2"/>
  <line x1="95" y1="130" x2="120" y2="130" stroke="#2e3a2c" stroke-width="2"/>
  <!-- sole -->
  <rect x="35" y="150" width="170" height="14" fill="#1c2418"/>
  <!-- sole tread -->
  <line x1="55" y1="155" x2="55" y2="160" stroke="#f0ebe0" stroke-width="1.5"/>
  <line x1="85" y1="155" x2="85" y2="160" stroke="#f0ebe0" stroke-width="1.5"/>
  <line x1="115" y1="155" x2="115" y2="160" stroke="#f0ebe0" stroke-width="1.5"/>
  <line x1="145" y1="155" x2="145" y2="160" stroke="#f0ebe0" stroke-width="1.5"/>
  <line x1="175" y1="155" x2="175" y2="160" stroke="#f0ebe0" stroke-width="1.5"/>
  <text x="120" y="190" font-family="sans-serif" font-size="10" text-anchor="middle" fill="#6b7280">NW-1003 Trail Runner</text>
</svg>
