<svg xmlns="http://www.w3.org/2000/svg" width="240" height="200" viewBox="0 0 240 200">
  <rect width="240" height="200" fill="#f0ebe0"/>
  <!-- stove burner base -->
  <ellipse cx="120" cy="125" rx="55" ry="10" fill="#5e6068" stroke="#2e3033" stroke-width="2"/>
  <rect x="65" y="115" width="110" height="15" fill="#5e6068"/>
  <!-- burner ring -->
  <circle cx="120" cy="115" r="35" fill="none" stroke="#2e3033" stroke-width="2"/>
  <circle cx="120" cy="115" r="35" fill="#9da0a4"/>
  <circle cx="120" cy="115" r="22" fill="#5e6068"/>
  <!-- flames -->
  <path d="M105 105 Q108 90 112 100 Q115 88 118 102 Q122 90 125 102 Q128 88 132 100 Q135 90 138 105" fill="#ff7a00" stroke="#b54a00" stroke-width="1"/>
  <path d="M110 108 Q113 95 115 105 Q118 93 121 105 Q124 93 127 105 Q130 95 133 108" fill="#ffb84d"/>
  <!-- canister -->
  <rect x="100" y="140" width="40" height="35" rx="3" fill="#e0d97a" stroke="#7a7000" stroke-width="2"/>
  <rect x="100" y="140" width="40" height="10" fill="#b91c1c"/>
  <text x="120" y="195" font-family="sans-serif" font-size="10" text-anchor="middle" fill="#6b7280">NW-1013 Compact Stove</text>
</svg>
